<svg xmlns="http://www.w3.org/2000/svg" data-name="Ebene 1" viewBox="0 0 512 512"><defs><linearGradient id="a" x1="254.7" x2="256.8" y1="446.6" y2="87.9" data-name="Unbenannter Verlauf" gradientTransform="matrix(1 0 0 -1 0 514.4)" gradientUnits="userSpaceOnUse"><stop offset="0" stop-color="#57d163"/><stop offset="1" stop-color="#23b33a"/></linearGradient></defs><path fill="#b3b3b3" d="m143.8 431.2 7.7 4.5c32.2 19.1 69.2 29.2 106.8 29.2 115.7 0 209.8-94.1 209.9-209.8 0-56.1-21.8-108.8-61.4-148.4-39.3-39.5-92.7-61.7-148.4-61.5-115.8 0-209.9 94.1-210 209.8 0 39.5 11.1 78.2 32.1 111.7l5 7.9L64.3 452l79.4-20.8ZM3.7 512l35.8-130.8C17.4 342.9 5.8 299.5 5.8 255 5.9 115.8 119.2 2.6 258.4 2.6c67.5 0 130.9 26.3 178.6 74 47.7 47.7 73.9 111.1 73.9 178.6 0 139.2-113.3 252.4-252.5 252.4h-.1c-42.2 0-83.6-10.6-120.7-30.7L3.7 512Z"/><path fill="#fff" d="m1.1 509.4 35.8-130.8C14.8 340.2 3.2 296.7 3.3 252.4 3.3 113.2 116.6 0 255.8 0c67.5 0 130.9 26.3 178.6 74 47.7 47.7 73.9 111.1 73.9 178.6C508.3 391.8 395 505 255.8 505h-.1c-42.2 0-83.6-10.6-120.7-30.7L1.1 509.4Z"/><path fill="none" d="M255.8 42.6c-115.8 0-209.9 94.1-210 209.8 0 39.5 11.1 78.2 32.1 111.7l5 7.9-21.2 77.4 79.4-20.8 7.7 4.5c32.2 19.1 69.2 29.2 106.8 29.3 115.7 0 209.8-94.1 209.9-209.8.2-55.7-21.9-109.1-61.4-148.4-39.3-39.5-92.7-61.7-148.4-61.5Z"/><path fill="url(#a)" d="M255.8 42.6c-115.8 0-209.9 94.1-210 209.8 0 39.5 11.1 78.2 32.1 111.7l5 7.9-21.2 77.4 79.4-20.8 7.7 4.5c32.2 19.1 69.2 29.2 106.8 29.2 115.7 0 209.8-94.1 209.9-209.8.2-55.7-21.9-109.1-61.4-148.4-39.3-39.5-92.7-61.7-148.4-61.5Z"/><path fill="#fff" fill-rule="evenodd" d="M192.7 146.9c-4.7-10.5-9.7-10.7-14.2-10.9h-12.1c-4.2-.1-11 1.4-16.8 7.7s-22.1 21.6-22.1 52.6 22.6 61 25.8 65.2 43.6 69.9 107.8 95.2c53.3 21 64.1 16.8 75.7 15.8 11.6-1.1 37.3-15.3 42.6-30 5.3-14.7 5.3-27.4 3.7-30s-5.8-4.2-12.1-7.4-37.3-18.4-43.1-20.5-10-3.2-14.2 3.2c-4.2 6.3-16.3 20.5-20 24.7s-7.4 4.7-13.7 1.6-26.6-9.8-50.7-31.3c-18.8-16.7-31.4-37.4-35.1-43.7s-.4-9.7 2.8-12.9c2.8-2.8 6.3-7.4 9.5-11.1s4.2-6.3 6.3-10.5 1.1-7.9-.5-11.1-13.8-34.4-19.4-46.8"/></svg>