<svg xmlns="http://www.w3.org/2000/svg" xml:space="preserve" width="800" height="800" viewBox="0 0 228.097 228.097"><g fill="#c1272d"><path d="M173.22 68.06c8.204 6.784 30.709 25.392 27.042 38.455-1.696 5.867-8.434 7.746-13.43 9.579a247.917 247.917 0 0 1-35.339 9.9c-9.717 1.971-30.48 6.279-26.63-10.909 1.512-6.646 6.875-12.284 11.184-17.28 8.846-10.404 17.876-21.405 28.555-29.93.871-.688 1.925-.871 2.842-.733 1.788-.732 3.942-.64 5.776.918zM161.119 205.197c-7.196-5.821-12.284-14.942-16.684-22.917-4.309-7.7-11.092-17.876-12.238-26.813-2.337-18.38 24.292-7.333 31.947-4.675 10.175 3.575 37.447 7.517 34.422 23.421-2.521 12.971-18.151 28.784-31.213 30.801-.137.046-.321 0-.504 0l-.137.137c-.367.183-.779.413-1.192.596-1.559.826-3.071.505-4.401-.55zM101.58 157.896c14.484-6.004 15.813 10.175 15.721 19.984-.137 11.688-.504 23.421-1.375 35.063-.321 4.721-.137 10.405-4.629 13.384-5.546 3.667-16.225.779-21.955-1.008a2.793 2.793 0 0 0-.55-.229c-12.054-2.108-26.767-7.654-28.188-18.792-.138-1.283.367-2.429 1.146-3.3a19.33 19.33 0 0 1 1.146-1.925c1.788-2.475 3.85-4.675 5.913-6.921a187.832 187.832 0 0 1 11.229-14.988c5.775-6.967 12.879-17.693 21.542-21.268zM103.689 107.661c-21.13-17.371-41.71-44.276-52.344-69.164-8.113-18.93 12.513-30.48 28.417-35.705 21.451-7.059 29.976-.917 32.13 20.534a536.663 536.663 0 0 1 2.475 55.643c-.046 7.838 2.154 20.488-2.429 27.547.733 2.888-3.621 4.95-6.096 2.979-.367-.275-.733-.642-1.146-.963a4.415 4.415 0 0 1-1.007-.871zM101.397 134.566c1.696 7.517-3.621 10.542-9.854 13.384-11.092 4.996-22.734 8.984-34.422 12.284-6.784 1.879-17.188 6.371-23.742 1.375-4.95-3.758-5.271-11.596-5.729-17.28-1.008-12.696.917-42.993 18.517-44.276 8.617-.596 19.388 7.104 26.447 11.138 9.396 5.409 19.48 11.596 26.492 20.076 1.053.595 1.924 1.649 2.291 3.299z"/></g></svg>